<svg xmlns="http://www.w3.org/2000/svg" viewBox="0 0 128 128" fill="none">
  <g stroke="rgb(150,183,62)" stroke-width="5.4" stroke-linecap="round" stroke-linejoin="round">
    <path d="M25 90H103"/>
    <path d="M31 89c5-8 8-17 8-28"/>
    <path d="M44 89c0-11 1-22 3-33"/>
    <path d="M58 89c0-15 2-28 6-41"/>
    <path d="M74 89c1-10 4-19 9-27"/>
    <path d="M90 89c2-7 6-13 12-18"/>
    <path d="M54 49c8-10 16-17 28-20"/>
    <path d="M60 48c-5-8-11-14-19-18"/>
    <path d="M80 40c1-10-1-18-7-24 10 2 18 9 21 18"/>
    <path d="M48 42c-1-8 1-15 7-22-10 2-17 8-21 16"/>
  </g>
</svg>